<svg xmlns="http://www.w3.org/2000/svg" viewBox="0 0 893.05 499.2"><defs><style>.cls-1{fill:#fff;}.cls-2{fill:#1d1d1b;}</style></defs><g id="Capa_2" data-name="Capa 2"><g id="Capa_1-2" data-name="Capa 1"><polygon points="488.31 271.97 577.37 200.18 553 94.4 556.04 0 476.89 55.56 416 55.56 336.84 0 339.89 94.4 316.06 200.18 404.58 271.97 488.31 271.97"/><polyline class="cls-1" points="501.92 211.23 539.77 159.89 548.65 118.88 533.9 84.99 499.78 69.04 446.84 69.04 393.65 69.04 359.53 84.99 344.78 118.88 353.66 159.89 391.51 211.23 419.78 220.53 435.37 262.21 431.02 222.34 437.9 228.5 442.25 222.34 446.84 228.5 451.43 222.34 455.78 228.5 462.67 222.34 458.32 262.21 473.9 220.53 502.17 211.23"/><polygon class="cls-2" points="436.42 202.41 446.87 182.12 457.01 202.41 446.71 196.61 436.42 202.41"/><polygon points="432.44 179.6 419.36 137.38 352.46 118.88 368.63 166.09 432.44 179.6"/><path class="cls-1" d="M391.13,165.63c-.48.06-4.78-11.06-4.78-11.06L390,134.76l5.95,20.05Z"/><polygon points="460.99 179.6 474.07 137.38 540.97 118.88 524.79 166.09 460.99 179.6"/><path class="cls-1" d="M501,165.63c-.49.06-4.79-11.06-4.79-11.06l3.62-19.81,5.95,20.05Z"/><path d="M0,418v-93H16.91v93Z"/><path d="M29.44,418v-93H48.16l33.69,40.16,33.57-40.16h18.85v93H117.1V349.87l-35.25,42L46.48,350v68Z"/><path d="M149.25,418V325.21h74.88a17.37,17.37,0,0,1,9,2.46,18.71,18.71,0,0,1,6.59,6.52,17.08,17.08,0,0,1,2.45,9v25a17.45,17.45,0,0,1-2.45,9,18,18,0,0,1-6.59,6.51,17.7,17.7,0,0,1-9,2.4l-57.84.12V418ZM167.84,369h55.52a1.87,1.87,0,0,0,1.16-.39,1.23,1.23,0,0,0,.52-1V343.81a1.43,1.43,0,0,0-.52-1.1,1.71,1.71,0,0,0-1.16-.45H167.84a1.54,1.54,0,0,0-1.55,1.55v23.75a1.28,1.28,0,0,0,.45,1A1.63,1.63,0,0,0,167.84,369Z"/><path d="M269.06,418a17,17,0,0,1-9-2.45,18.84,18.84,0,0,1-6.52-6.52,17,17,0,0,1-2.45-9V343a17,17,0,0,1,2.45-9,18.76,18.76,0,0,1,6.52-6.52,17.09,17.09,0,0,1,9-2.46h57.07a17.09,17.09,0,0,1,9,2.46,18.76,18.76,0,0,1,6.52,6.52,17,17,0,0,1,2.45,9V400.1a17,17,0,0,1-2.45,9,18.84,18.84,0,0,1-6.52,6.52,17,17,0,0,1-9,2.45Zm.65-17.17h55.52a1.73,1.73,0,0,0,1.16-.45,1.4,1.4,0,0,0,.51-1.1V343.81a1.42,1.42,0,0,0-.51-1.1,1.73,1.73,0,0,0-1.16-.45H269.71a1.54,1.54,0,0,0-1.55,1.55v55.51a1.49,1.49,0,0,0,.45,1.1A1.5,1.5,0,0,0,269.71,400.87Z"/><path d="M375.84,418a17,17,0,0,1-9-2.45,18.93,18.93,0,0,1-6.52-6.52,17.08,17.08,0,0,1-2.45-9V393h17v6.32a1.49,1.49,0,0,0,.45,1.1,1.5,1.5,0,0,0,1.1.45h55.65a1.48,1.48,0,0,0,1.09-.45,1.49,1.49,0,0,0,.46-1.1V381.63a1.31,1.31,0,0,0-.46-1,1.64,1.64,0,0,0-1.09-.38H375.84a17,17,0,0,1-9-2.46,18.93,18.93,0,0,1-6.52-6.52,17.31,17.31,0,0,1-2.45-9.1V343a17.08,17.08,0,0,1,2.45-9,18.84,18.84,0,0,1,6.52-6.52,17.1,17.1,0,0,1,9-2.46H432.9a17.15,17.15,0,0,1,9,2.46,18.84,18.84,0,0,1,6.52,6.52,17.08,17.08,0,0,1,2.45,9v7.1H433.68v-6.32a1.51,1.51,0,0,0-.46-1.1,1.48,1.48,0,0,0-1.09-.45H376.48a1.54,1.54,0,0,0-1.55,1.55v17.68a1.3,1.3,0,0,0,.45,1,1.67,1.67,0,0,0,1.1.38H432.9a17.06,17.06,0,0,1,9,2.46,18.93,18.93,0,0,1,6.52,6.52,17.31,17.31,0,0,1,2.45,9.1V400.1a17.08,17.08,0,0,1-2.45,9,18.93,18.93,0,0,1-6.52,6.52,17,17,0,0,1-9,2.45Z"/><path d="M482.48,418a17,17,0,0,1-9-2.45,18.84,18.84,0,0,1-6.52-6.52,17,17,0,0,1-2.46-9V393h17.05v6.32a1.54,1.54,0,0,0,1.54,1.55h55.65a1.5,1.5,0,0,0,1.1-.45,1.49,1.49,0,0,0,.45-1.1V381.63a1.31,1.31,0,0,0-.45-1,1.67,1.67,0,0,0-1.1-.38H482.48a17,17,0,0,1-9-2.46,18.84,18.84,0,0,1-6.52-6.52,17.22,17.22,0,0,1-2.46-9.1V343a17,17,0,0,1,2.46-9,18.76,18.76,0,0,1,6.52-6.52,17.09,17.09,0,0,1,9-2.46h57.07a17.09,17.09,0,0,1,9,2.46,18.84,18.84,0,0,1,6.52,6.52,17.08,17.08,0,0,1,2.45,9v7.1H540.32v-6.32a1.54,1.54,0,0,0-1.55-1.55H483.12a1.48,1.48,0,0,0-1.09.45,1.5,1.5,0,0,0-.45,1.1v17.68a1.3,1.3,0,0,0,.45,1,1.64,1.64,0,0,0,1.09.38h56.43a17,17,0,0,1,9,2.46,18.93,18.93,0,0,1,6.52,6.52,17.31,17.31,0,0,1,2.45,9.1V400.1a17.08,17.08,0,0,1-2.45,9,18.93,18.93,0,0,1-6.52,6.52,17,17,0,0,1-9,2.45Z"/><path d="M569.76,418v-93h16.91v93Z"/><path d="M599.58,325.08h71.27a17.09,17.09,0,0,1,9,2.46,18.67,18.67,0,0,1,6.52,6.52,17,17,0,0,1,2.46,9v18.2a19.84,19.84,0,0,1-.26,3.23,12,12,0,0,1-.91,3,29.73,29.73,0,0,1,3.55,6.2,16.47,16.47,0,0,1,1.36,6.46v20a17.08,17.08,0,0,1-2.45,9,18.71,18.71,0,0,1-6.59,6.52,17.32,17.32,0,0,1-9,2.45H599.58Zm18.59,37.06h51.9a1.31,1.31,0,0,0,1-.45,1.63,1.63,0,0,0,.39-1.1V343.81a1.63,1.63,0,0,0-.39-1.1,1.31,1.31,0,0,0-1-.45h-51.9a1.55,1.55,0,0,0-1.55,1.55v16.78a1.55,1.55,0,0,0,1.55,1.55Zm0,38.73h55.52a1.71,1.71,0,0,0,1.16-.45,1.38,1.38,0,0,0,.52-1.1V380.86a1.4,1.4,0,0,0-.52-1.1,1.71,1.71,0,0,0-1.16-.45H618.17a1.55,1.55,0,0,0-1.55,1.55v18.46a1.46,1.46,0,0,0,.46,1.1A1.48,1.48,0,0,0,618.17,400.87Z"/><path d="M706.74,418V325h17v75.92H799.7V418Z"/><path d="M807.45,418v-93h85.6v17.18H824.62v20.65h55v17.31h-55v20.65h68.43V418Z"/><path d="M271.68,499.2a12.16,12.16,0,0,1-6.41-1.75,13.5,13.5,0,0,1-4.66-4.66,12.16,12.16,0,0,1-1.75-6.41V445.62a12.16,12.16,0,0,1,1.75-6.41,13.5,13.5,0,0,1,4.66-4.66,12.16,12.16,0,0,1,6.41-1.75h40.67a12.37,12.37,0,0,1,6.45,1.75,13.39,13.39,0,0,1,4.71,4.66,12.25,12.25,0,0,1,1.75,6.41v5.16H313v-4.61a1,1,0,0,0-.36-.78,1.22,1.22,0,0,0-.83-.32H272.14a1,1,0,0,0-.78.32,1.05,1.05,0,0,0-.33.78v39.66a1.11,1.11,0,0,0,1.11,1.1H311.8a1.22,1.22,0,0,0,.83-.32,1,1,0,0,0,.36-.78v-12H298V461.57h27.3v24.81a12.25,12.25,0,0,1-1.75,6.41,13.39,13.39,0,0,1-4.71,4.66,12.37,12.37,0,0,1-6.45,1.75Z"/><path d="M335.59,445.62a12.16,12.16,0,0,1,1.75-6.41,13.5,13.5,0,0,1,4.66-4.66,12.12,12.12,0,0,1,6.4-1.75h40.68a12.4,12.4,0,0,1,6.45,1.75,13.28,13.28,0,0,1,4.7,4.66,12.16,12.16,0,0,1,1.76,6.41V499.2H389.72V476.88h-42V499.2H335.59Zm54.13,19.09V446.17a1,1,0,0,0-.37-.78,1.19,1.19,0,0,0-.83-.32H348.87a1.06,1.06,0,0,0-.79.32,1.08,1.08,0,0,0-.32.78v18.54Z"/><path d="M412.5,499.2V432.8h13.37l24.07,28.68,24-28.68h13.46v66.4H475.12V450.51l-25.18,30L424.67,450.6v48.6Z"/><path d="M498.27,499.2V432.8h61.14v12.27H510.53v14.75h39.29v12.36H510.53v14.75h48.88V499.2Z"/><path d="M581.26,499.2a12.12,12.12,0,0,1-6.4-1.75,13.41,13.41,0,0,1-4.66-4.66,12.16,12.16,0,0,1-1.75-6.41v-5.07h12.17v4.52a1.09,1.09,0,0,0,1.1,1.1h39.75a1.09,1.09,0,0,0,1.11-1.1V473.19a.93.93,0,0,0-.32-.73,1.16,1.16,0,0,0-.79-.28H581.26a12.21,12.21,0,0,1-6.4-1.75,13.41,13.41,0,0,1-4.66-4.66,12.32,12.32,0,0,1-1.75-6.5V445.62a12.16,12.16,0,0,1,1.75-6.41,13.41,13.41,0,0,1,4.66-4.66,12.12,12.12,0,0,1,6.4-1.75H622a12.18,12.18,0,0,1,6.41,1.75,13.56,13.56,0,0,1,4.65,4.66,12.16,12.16,0,0,1,1.76,6.41v5.07H622.58v-4.52a1.08,1.08,0,0,0-.32-.78,1.06,1.06,0,0,0-.79-.32H581.72a1.06,1.06,0,0,0-.78.32,1.08,1.08,0,0,0-.32.78v12.64a.91.91,0,0,0,.32.73,1.15,1.15,0,0,0,.78.28H622a12.27,12.27,0,0,1,6.41,1.75,13.56,13.56,0,0,1,4.65,4.66,12.33,12.33,0,0,1,1.76,6.5v13.65a12.16,12.16,0,0,1-1.76,6.41,13.56,13.56,0,0,1-4.65,4.66A12.18,12.18,0,0,1,622,499.2Z"/></g></g></svg>